HIERARCHY
ROOT hip
{
	OFFSET 0.000000 0.000000 0.000000 
	CHANNELS 6 Xposition Yposition Zposition Zrotation Yrotation Xrotation
	JOINT abdomen
	{
		OFFSET 0.000000 20.688101 -0.731520 
		CHANNELS 3 Zrotation Xrotation Yrotation
		JOINT chest
		{
			OFFSET 0.000000 11.704300 -0.487680 
			CHANNELS 3 Zrotation Xrotation Yrotation
			JOINT neck
			{
				OFFSET 0.000000 22.189400 -2.194560 
				CHANNELS 3 Zrotation Xrotation Yrotation
				JOINT head
				{
					OFFSET -0.243840 7.071330 1.219200 
					CHANNELS 3 Zrotation Xrotation Yrotation
					End Site
					{
						OFFSET 1.000000 0.000000 0.000000 
					}
				}
			}
			JOINT rCollar
			{
				OFFSET -2.682240 19.263399 -4.876800 
				CHANNELS 3 Zrotation Xrotation Yrotation
				JOINT rShldr
				{
					OFFSET -8.778240 -1.950730 1.463040 
					CHANNELS 3 Zrotation Xrotation Yrotation
					JOINT rForeArm
					{
						OFFSET -28.174200 -1.711500 0.487680 
						CHANNELS 3 Zrotation Xrotation Yrotation
						JOINT rHand
						{
							OFFSET -22.587900 0.773209 7.071360 
							CHANNELS 3 Zrotation Xrotation Yrotation
							End Site
							{
								OFFSET -1.782710 -1.182140 1.430490 
							}
						}
					}
				}
			}
			JOINT lCollar
			{
				OFFSET 2.682240 19.263399 -4.876800 
				CHANNELS 3 Zrotation Xrotation Yrotation
				JOINT lShldr
				{
					OFFSET 8.778240 -1.950730 1.463040 
					CHANNELS 3 Zrotation Xrotation Yrotation
					JOINT lForeArm
					{
						OFFSET 28.174200 -1.711500 0.487680 
						CHANNELS 3 Zrotation Xrotation Yrotation
						JOINT lHand
						{
							OFFSET 22.587900 0.773209 7.071360 
							CHANNELS 3 Zrotation Xrotation Yrotation
							End Site
							{
								OFFSET 1.782710 -1.182140 1.430490 
							}
						}
					}
				}
			}
		}
	}
	JOINT rButtock
	{
		OFFSET -8.778240 4.350840 1.219200 
		CHANNELS 3 Zrotation Xrotation Yrotation
		JOINT rThigh
		{
			OFFSET 0.000000 -1.706870 -2.194560 
			CHANNELS 3 Zrotation Xrotation Yrotation
			JOINT rShin
			{
				OFFSET 0.000000 -36.819901 0.731520 
				CHANNELS 3 Zrotation Xrotation Yrotation
				JOINT rFoot
				{
					OFFSET 0.731520 -45.110401 -5.120640 
					CHANNELS 3 Zrotation Xrotation Yrotation
					End Site
					{
						OFFSET -1.122100 -3.699640 12.103000 
					}
				}
			}
		}
	}
	JOINT lButtock
	{
		OFFSET 8.778240 4.350840 1.219200 
		CHANNELS 3 Zrotation Xrotation Yrotation
		JOINT lThigh
		{
			OFFSET 0.000000 -1.706870 -2.194560 
			CHANNELS 3 Zrotation Xrotation Yrotation
			JOINT lShin
			{
				OFFSET 0.000000 -36.819901 0.731520 
				CHANNELS 3 Zrotation Xrotation Yrotation
				JOINT lFoot
				{
					OFFSET -0.731520 -45.110401 -5.120640 
					CHANNELS 3 Zrotation Xrotation Yrotation
					End Site
					{
						OFFSET 1.122100 -3.699640 12.103000 
					}
				}
			}
		}
	}
}
MOTION
Frames: 18
Frame Time: 0.008333
-93.454697 85.096603 -5.679480 0.000000 0.000000 0.000000 0.283894 -0.002914 0.008161 0.078459 -0.004733 0.013594 0.000000 0.000000 -0.000000 0.000000 0.000000 -0.000000 0.000000 -0.000000 0.000000 0.000000 -0.000000 0.000000 0.000000 -0.000000 -0.000000 0.000000 0.000000 -0.000000 0.000000 -0.000000 -0.000000 0.000000 -0.000000 -0.000000 0.000000 0.000000 -0.000000 0.000000 -0.000000 -0.000000 -0.000000 0.000000 -0.000000 0.668911 -3.858530 -0.057248 -0.003418 1.437940 -0.027440 -0.455253 2.421050 0.100329 0.000000 0.000000 0.000000 -0.234827 -2.724190 0.029939 0.006626 -0.616662 0.057973 0.449442 3.341270 -0.117942 
-87.261002 83.681503 -11.584000 -48.091702 88.867699 -43.866199 0.449127 -0.615564 0.289303 0.693459 -0.584347 0.124732 0.077672 -2.461480 -0.000825 0.468849 2.743500 0.054945 0.000000 -0.000000 0.000000 20.249500 8.342160 -0.485533 -6.011630 -3.217600 8.801720 -0.000025 0.228532 0.032121 0.000000 -0.000000 0.000000 -21.745501 7.620450 0.614306 4.254220 -1.939760 -6.637440 -0.098828 -6.983090 0.955284 -0.000000 0.000000 -0.000000 1.500470 -4.412300 6.943820 0.018875 5.227730 0.082823 -1.393400 -1.736770 -10.199600 0.000000 0.000000 0.000000 0.219314 -5.876970 -4.166340 -0.019312 6.292680 -0.105132 1.146700 -1.256350 5.555140 
-87.434303 83.818398 -11.462400 -51.308201 88.962997 -47.049599 0.634354 -1.269860 0.587959 1.346380 -1.197070 0.242928 0.155393 -5.065810 -0.001989 0.953468 5.659000 0.115512 -0.000000 -0.000000 0.000000 41.810200 17.162100 -1.026170 -11.311400 -6.372270 18.204100 -0.000411 0.440809 0.061962 -0.000000 -0.000000 0.000000 -44.921398 15.679300 1.287800 8.259170 -3.898350 -13.667400 0.057258 -14.355600 2.013070 -0.000000 0.000000 -0.000000 2.526280 -4.880090 14.378300 0.026196 9.206270 0.200398 -3.975280 -5.761960 -21.214800 0.000000 0.000000 0.000000 0.198940 -9.144680 -8.614330 -0.002867 13.621800 -0.284463 2.863380 -6.009220 11.567400 
-87.601601 83.893600 -11.305100 -54.813099 88.989403 -50.588902 0.797638 -1.840680 0.851976 1.930210 -1.743550 0.347149 0.232801 -7.384450 -0.002493 1.390620 8.230470 0.166360 -0.000000 -0.000000 0.000000 61.209999 25.018900 -1.590460 -15.157300 -8.743290 26.697599 -0.000844 0.685596 0.096369 -0.000000 -0.000000 0.000000 -65.762100 22.850401 1.982260 11.439300 -5.507540 -19.997101 0.443698 -20.925100 3.045630 -0.000000 0.000000 -0.000000 3.553430 -5.247150 20.975700 0.018757 12.807200 0.310009 -7.568960 -8.695780 -31.183001 0.000000 0.000000 0.000000 -0.271829 -11.935000 -12.773700 0.052737 20.110800 -0.457320 5.262710 -10.012700 17.166300 
-87.769096 83.954903 -11.145600 -57.832500 89.034798 -53.668098 0.892878 -2.203020 1.029000 2.336450 -2.124450 0.416297 0.309694 -8.988900 -0.001316 1.721480 9.941840 0.191294 -0.000000 -0.000000 0.000000 74.882401 30.474501 -2.092660 -17.376801 -10.032000 32.636600 -0.001255 1.011660 0.142194 -0.000000 -0.000000 0.000000 -80.400002 27.811001 2.603800 13.471500 -6.535770 -24.496599 0.870790 -25.510000 3.845410 -0.000000 0.000000 -0.000000 4.348890 -5.571930 25.462799 0.005129 15.464100 0.393892 -10.731600 -10.260100 -38.121101 0.000000 0.000000 0.000000 -0.900122 -13.744300 -16.026199 0.115588 24.500299 -0.587878 7.478740 -12.569300 21.440800 
-87.954300 84.013496 -10.995100 -59.365398 89.096603 -55.224701 0.884697 -2.268100 1.075640 2.492610 -2.273020 0.433625 0.389569 -9.590620 0.005107 1.913320 10.443000 0.182259 -0.000000 -0.000000 0.000000 80.366997 32.594501 -2.410630 -18.130600 -10.416800 34.906300 -0.002100 1.487070 0.209019 -0.000000 -0.000000 0.000000 -86.164101 29.680000 3.042100 14.282000 -6.954790 -26.393400 1.079650 -27.326500 4.185820 -0.000000 0.000000 -0.000000 4.729140 -5.958070 26.990601 -0.002723 16.824400 0.439110 -12.190100 -10.894500 -40.608002 0.000000 0.000000 0.000000 -1.301320 -14.300300 -17.866301 0.142425 25.919100 -0.637225 8.585000 -13.421800 23.621000 
-88.160599 84.067497 -10.868200 -60.554501 89.219704 -56.389702 0.801812 -2.121130 1.029480 2.469670 -2.255670 0.414039 0.471335 -9.476230 0.015130 2.006060 10.079900 0.148655 -0.000000 -0.000000 0.000000 79.943298 32.333000 -2.558470 -17.992201 -10.316300 34.525700 -0.004298 2.067470 0.290654 -0.000000 -0.000000 0.000000 -85.523300 29.343901 3.309160 14.307400 -6.999440 -26.418301 1.059270 -27.171499 4.155680 -0.000000 0.000000 -0.000000 4.773350 -6.425830 26.402500 -0.002538 17.257500 0.455247 -12.201600 -11.133900 -39.877102 0.000000 0.000000 0.000000 -1.423960 -14.012200 -18.665501 0.132508 25.217800 -0.622598 8.690010 -13.165700 24.244900 
-88.372803 84.162102 -10.743200 -65.315697 89.318298 -61.104900 0.693365 -1.898130 0.959582 2.374060 -2.172820 0.383889 0.547966 -9.079980 0.021975 2.050920 9.381030 0.099998 -0.000000 -0.000000 0.000000 77.127998 31.086300 -2.626630 -17.459400 -9.985880 33.010101 -0.007861 2.632940 0.370271 -0.000000 -0.000000 0.000000 -82.294197 28.133699 3.467060 14.019200 -6.894270 -25.683201 0.947543 -26.239599 3.979040 -0.000000 0.000000 -0.000000 4.650030 -6.927380 24.965900 0.001318 17.279900 0.457165 -11.576300 -11.163800 -37.862701 0.000000 0.000000 0.000000 -1.435180 -13.433600 -19.091700 0.109659 23.718901 -0.584982 8.395950 -12.481700 24.287901 
-88.578300 84.262802 -10.583700 -73.490700 89.289803 -69.223000 0.607572 -1.735140 0.934958 2.312110 -2.124890 0.369524 0.612807 -8.836100 0.018925 2.100320 8.874720 0.045567 -0.000000 -0.000000 0.000000 75.458801 30.249399 -2.717240 -17.028299 -9.678740 31.874800 -0.011525 3.063560 0.430971 -0.000000 -0.000000 0.000000 -80.326202 27.378599 3.593730 13.874600 -6.853720 -25.302200 0.886924 -25.725401 3.882720 -0.000000 0.000000 -0.000000 4.568510 -7.398070 23.951099 0.002968 17.408001 0.460319 -11.161100 -11.154600 -36.511501 0.000000 0.000000 0.000000 -1.532820 -13.098100 -19.817400 0.095825 22.745199 -0.564144 8.342870 -12.020700 24.730700 
-88.802902 84.316704 -10.450200 -79.839104 89.311302 -75.461304 0.538580 -1.665860 0.989475 2.295190 -2.128850 0.381705 0.666388 -8.817320 -0.001768 2.159210 8.653180 -0.025795 -0.000000 -0.000000 0.000000 75.524803 30.086300 -2.850310 -16.789101 -9.443750 31.350599 -0.013625 3.250090 0.457304 -0.000000 -0.000000 0.000000 -80.254204 27.334801 3.693500 13.954000 -6.917300 -25.461901 0.896915 -25.858299 3.905790 -0.000000 0.000000 -0.000000 4.562500 -7.836430 23.556801 0.001087 17.724300 0.466116 -11.051600 -11.120700 -36.139500 0.000000 0.000000 0.000000 -1.794360 -13.094900 -21.036400 0.092623 22.530500 -0.566579 8.664220 -11.881700 25.823700 
-89.038002 84.306198 -10.354700 -86.016800 89.431900 -81.543701 0.466751 -1.618600 1.081170 2.272250 -2.134410 0.405137 0.711520 -8.806410 -0.034531 2.202340 8.450830 -0.114448 -0.000000 -0.000000 0.000000 75.558296 29.889000 -2.974760 -16.480101 -9.141620 30.689400 -0.014283 3.282240 0.461870 -0.000000 -0.000000 0.000000 -80.158302 27.326500 3.731980 14.025300 -6.974850 -25.605200 0.910041 -26.030899 3.935840 -0.000000 0.000000 -0.000000 4.527510 -8.270540 23.151600 -0.001156 17.971701 0.467176 -10.850500 -10.969800 -35.777699 0.000000 0.000000 0.000000 -2.115640 -13.150400 -22.387400 0.090005 22.409000 -0.572574 9.035220 -11.737300 27.049101 
-89.258797 84.297897 -10.250400 -99.946800 89.511497 -95.416901 0.418783 -1.571290 1.165240 2.255900 -2.141110 0.427067 0.745088 -8.802640 -0.066085 2.238710 8.259370 -0.195272 -0.000000 -0.000000 0.000000 75.564003 29.594400 -3.083880 -16.120399 -8.797960 29.929300 -0.014575 3.338580 0.469811 -0.000000 -0.000000 0.000000 -80.063301 27.283600 3.728790 14.087200 -7.025050 -25.729601 0.921776 -26.183001 3.962440 -0.000000 0.000000 -0.000000 4.498580 -8.675980 22.765100 -0.003185 18.157700 0.465894 -10.627500 -10.785600 -35.445301 0.000000 0.000000 0.000000 -2.425500 -13.249600 -23.706200 0.088009 22.354000 -0.580016 9.395690 -11.601900 28.223499 
-89.508202 84.279602 -10.138300 -117.417000 89.464798 -112.751999 0.421419 -1.501890 1.196880 2.258700 -2.148510 0.434744 0.763971 -8.805290 -0.083155 2.277650 8.070500 -0.243191 -0.000000 -0.000000 0.000000 75.546204 29.139200 -3.170900 -15.731300 -8.439870 29.107300 -0.015901 3.597700 0.506295 -0.000000 -0.000000 0.000000 -79.994102 27.135900 3.703560 14.138200 -7.066560 -25.832701 0.927360 -26.254601 3.975000 -0.000000 0.000000 -0.000000 4.512200 -9.027870 22.426800 -0.004479 18.289600 0.464681 -10.450300 -10.653800 -35.160500 0.000000 0.000000 0.000000 -2.649310 -13.382300 -24.828100 0.086685 22.338900 -0.586802 9.686980 -11.492900 29.164101 
-89.763702 84.259201 -10.029700 -127.988998 89.365097 -123.165001 0.498484 -1.409460 1.137990 2.295180 -2.151020 0.417560 0.766112 -8.833170 -0.071829 2.328280 7.901540 -0.231800 -0.000000 -0.000000 0.000000 75.485901 28.518801 -3.213550 -15.297000 -8.054790 28.191999 -0.020241 4.125720 0.580810 -0.000000 -0.000000 0.000000 -79.958199 26.810600 3.643510 14.166000 -7.089000 -25.889400 0.922875 -26.197001 3.964900 -0.000000 0.000000 -0.000000 4.603530 -9.313340 22.181999 -0.004709 18.354700 0.464033 -10.349300 -10.605100 -34.966400 0.000000 0.000000 0.000000 -2.759530 -13.573600 -25.732500 0.086251 22.391001 -0.594095 9.916720 -11.445400 29.832701 
-89.984703 84.248497 -9.921920 -137.141006 89.208099 -132.251999 0.630582 -1.304100 1.021200 2.354900 -2.150700 0.384718 0.753618 -8.880320 -0.042641 2.384010 7.750400 -0.181132 -0.000000 -0.000000 0.000000 75.388298 27.762899 -3.223010 -14.807100 -7.630780 27.178499 -0.028069 4.821210 0.679203 -0.000000 -0.000000 0.000000 -79.943398 26.362900 3.545000 14.175500 -7.096550 -25.909000 0.911760 -26.053101 3.939730 -0.000000 0.000000 -0.000000 4.747620 -9.546710 22.002199 -0.004212 18.354000 0.462706 -10.282800 -10.592400 -34.840099 0.000000 0.000000 0.000000 -2.800500 -13.822000 -26.500500 0.086661 22.512899 -0.602460 10.111100 -11.442000 30.323999 
-90.202499 84.244301 -9.807270 -143.501007 88.924896 -138.570007 0.779500 -1.180320 0.907798 2.413020 -2.158570 0.353183 0.729542 -8.908900 -0.018990 2.430480 7.579710 -0.135746 -0.000000 -0.000000 0.000000 75.292702 26.859900 -3.242200 -14.296100 -7.199710 26.142700 -0.038784 5.611370 0.791235 -0.000000 -0.000000 0.000000 -79.944000 25.915400 3.440750 14.191400 -7.109640 -25.941099 0.900125 -25.900400 3.913120 -0.000000 0.000000 -0.000000 4.890260 -9.744070 21.806400 -0.003491 18.315399 0.460515 -10.210200 -10.584800 -34.700500 0.000000 0.000000 0.000000 -2.799580 -14.082200 -27.119200 0.087523 22.641500 -0.608885 10.238400 -11.423500 30.654699 
-90.431900 84.244102 -9.699170 -147.679993 88.636101 -142.692001 0.906558 -1.032620 0.859058 2.444640 -2.185660 0.339919 0.696850 -8.881100 -0.024291 2.452860 7.352100 -0.140144 -0.000000 0.000000 0.000000 75.235298 25.798300 -3.312790 -13.803300 -6.796800 25.159201 -0.050873 6.423400 0.906590 -0.000000 0.000000 0.000000 -79.952599 25.590401 3.362440 14.238500 -7.148640 -26.035400 0.893811 -25.816601 3.898560 -0.000000 0.000000 -0.000000 4.975880 -9.921790 21.513201 -0.003051 18.266701 0.457273 -10.090800 -10.550600 -34.466599 0.000000 0.000000 0.000000 -2.781500 -14.310100 -27.574400 0.088387 22.713600 -0.610331 10.265400 -11.331000 30.841101 
-90.657097 84.253197 -9.615280 -151.947998 88.424103 -146.936996 1.000720 -0.855721 0.901700 2.441050 -2.238160 0.352462 0.656877 -8.748870 -0.076341 2.413180 6.997050 -0.227024 0.000000 0.000000 -0.000000 75.195900 24.427299 -3.401370 -13.299000 -6.404770 24.151501 -0.065177 7.344030 1.037640 0.000000 0.000000 -0.000000 -79.979301 25.295900 3.309070 14.315300 -7.211520 -26.191299 0.894178 -25.821100 3.899360 -0.000000 0.000000 -0.000000 4.979880 -10.078300 21.079000 -0.003014 18.205299 0.452564 -9.905350 -10.482900 -34.088501 0.000000 0.000000 0.000000 -2.739580 -14.502500 -27.822399 0.089250 22.711700 -0.605054 10.159400 -11.134600 30.845600 
